<svg width="156" height="18" viewBox="0 0 156 18" fill="none" xmlns="http://www.w3.org/2000/svg">
<path d="M0.384766 0.209961H15.4023V3.19629H3.79004V7.58984H13.6514V10.3936H3.79004V17H0.384766V0.209961ZM16.9557 0.209961H20.3609V9.45898C20.3609 10.2181 20.4648 10.8949 20.6725 11.4893C20.8801 12.0765 21.1881 12.5742 21.5963 12.9824C22.0117 13.3906 22.5237 13.7021 23.1324 13.917C23.7411 14.1247 24.4501 14.2285 25.2594 14.2285C26.0615 14.2285 26.7669 14.1247 27.3756 13.917C27.9915 13.7021 28.5035 13.3906 28.9117 12.9824C29.3271 12.5742 29.6386 12.0765 29.8463 11.4893C30.054 10.8949 30.1578 10.2181 30.1578 9.45898V0.209961H33.5631V9.86719C33.5631 10.9701 33.3769 11.9727 33.0045 12.875C32.6321 13.7773 32.0914 14.5508 31.3824 15.1953C30.6734 15.8398 29.8033 16.3376 28.7721 16.6885C27.748 17.0394 26.5771 17.2148 25.2594 17.2148C23.9417 17.2148 22.7672 17.0394 21.7359 16.6885C20.7118 16.3376 19.8453 15.8398 19.1363 15.1953C18.4273 14.5508 17.8867 13.7773 17.5143 12.875C17.1419 11.9727 16.9557 10.9701 16.9557 9.86719V0.209961ZM36.6203 0.209961H45.1604C46.4494 0.209961 47.5666 0.346029 48.5119 0.618164C49.4572 0.883138 50.2414 1.26986 50.8645 1.77832C51.4875 2.28678 51.9494 2.90625 52.2502 3.63672C52.5581 4.36719 52.7121 5.19434 52.7121 6.11816C52.7121 6.74121 52.6369 7.33561 52.4865 7.90137C52.3361 8.45996 52.1034 8.97559 51.7883 9.44824C51.4803 9.9209 51.09 10.3434 50.6174 10.7158C50.1447 11.0811 49.5897 11.3854 48.9523 11.6289L52.6047 17H48.4367L45.2785 12.2305H45.1818L40.0256 12.2197V17H36.6203V0.209961ZM45.2463 9.27637C45.8908 9.27637 46.453 9.20117 46.9328 9.05078C47.4198 8.90039 47.8244 8.68913 48.1467 8.41699C48.4761 8.14486 48.7196 7.81543 48.8771 7.42871C49.0419 7.03483 49.1242 6.59798 49.1242 6.11816C49.1242 5.18001 48.802 4.45671 48.1574 3.94824C47.5129 3.43262 46.5425 3.1748 45.2463 3.1748H40.0256V9.27637H45.2463ZM55.6297 0.209961H59.035L69.4979 5.68848V0.209961H72.9031V17H69.4979V9.29785L59.035 3.85156V17H55.6297V0.209961ZM76.1215 0.209961H79.5482V17H76.1215V0.209961ZM87.8584 3.19629H81.6602V0.209961H97.4619V3.19629H91.2637V17H87.8584V3.19629ZM99.3697 0.209961H102.775V9.45898C102.775 10.2181 102.879 10.8949 103.087 11.4893C103.294 12.0765 103.602 12.5742 104.01 12.9824C104.426 13.3906 104.938 13.7021 105.546 13.917C106.155 14.1247 106.864 14.2285 107.673 14.2285C108.476 14.2285 109.181 14.1247 109.79 13.917C110.406 13.7021 110.918 13.3906 111.326 12.9824C111.741 12.5742 112.053 12.0765 112.26 11.4893C112.468 10.8949 112.572 10.2181 112.572 9.45898V0.209961H115.977V9.86719C115.977 10.9701 115.791 11.9727 115.419 12.875C115.046 13.7773 114.505 14.5508 113.796 15.1953C113.088 15.8398 112.217 16.3376 111.186 16.6885C110.162 17.0394 108.991 17.2148 107.673 17.2148C106.356 17.2148 105.181 17.0394 104.15 16.6885C103.126 16.3376 102.259 15.8398 101.55 15.1953C100.841 14.5508 100.301 13.7773 99.9283 12.875C99.5559 11.9727 99.3697 10.9701 99.3697 9.86719V0.209961ZM119.034 0.209961H127.574C128.863 0.209961 129.981 0.346029 130.926 0.618164C131.871 0.883138 132.655 1.26986 133.279 1.77832C133.902 2.28678 134.363 2.90625 134.664 3.63672C134.972 4.36719 135.126 5.19434 135.126 6.11816C135.126 6.74121 135.051 7.33561 134.901 7.90137C134.75 8.45996 134.517 8.97559 134.202 9.44824C133.894 9.9209 133.504 10.3434 133.031 10.7158C132.559 11.0811 132.004 11.3854 131.366 11.6289L135.019 17H130.851L127.693 12.2305H127.596L122.44 12.2197V17H119.034V0.209961ZM127.66 9.27637C128.305 9.27637 128.867 9.20117 129.347 9.05078C129.834 8.90039 130.238 8.68913 130.561 8.41699C130.89 8.14486 131.134 7.81543 131.291 7.42871C131.456 7.03483 131.538 6.59798 131.538 6.11816C131.538 5.18001 131.216 4.45671 130.571 3.94824C129.927 3.43262 128.957 3.1748 127.66 3.1748H122.44V9.27637H127.66ZM143.791 0.209961H147.4L155.521 17H151.944L150.601 14.1748H140.794L139.494 17H135.906L143.791 0.209961ZM149.259 11.3711L145.628 3.74414L142.094 11.3711H149.259Z" fill="#2A2B30"/>
</svg>
